<svg id="Layer_1" data-name="Layer 1" xmlns="http://www.w3.org/2000/svg" viewBox="0 0 1180 1180">
	<pattern id="myPattern-a" width="100%" height="100%" patternContentUnits="objectBoundingBox"><image xlink:href="{{image:/assets/img/30/american-green-travel-ji5XMfO3dXY-unsplash.jpg}}" width="1" height="1" preserveAspectRatio="xMidYMid slice"></image></pattern>
	<path d="M159.4,362.73C239.55,225.18,436.15-26,613.29,14.33c162,36.91,203.37,293.89,375.08,296.48,91.77,1.38,130.46-71.27,168.63-46.9,94.67,60.41-30,579.48-176.51,589.59-119.87,8.26-161.26-330.37-331-341.7-134-8.94-289.88,190.26-255.31,291.45C445.73,954,907.58,850.84,919,918.82c13.56,80.55-599.82,433.31-830.55,182.58C-74.79,924,50.46,549.69,159.4,362.73Z" transform="translate(-10 -10)" fill="url(#myPattern-a)"/>
</svg>