<svg id="Layer_1" data-name="Layer 1" xmlns="http://www.w3.org/2000/svg" viewBox="0 0 1180 1180">
	<pattern id="myPattern-c" width="100%" height="100%" patternContentUnits="objectBoundingBox"><image xlink:href="{{image:/assets/img/30/american-green-travel-ji5XMfO3dXY-unsplash.jpg}}" width="1" height="1" preserveAspectRatio="xMidYMid slice"></image></pattern>
	<path d="M677,451.93C456.5,448.48,330.39,234.15,197.42,267,91,293.2,47.54,461,31,524.9-15.6,704.64,4,998.14,207.31,1129c277.51,178.69,686.08-81.56,677.27-191.76-7.69-96.13-127.44-111.23-121.94-176.49,5.72-67.95,150.22-15.42,324.62-222.31,117.46-139.34,139-385.28,39.55-483.65C1044.86-26.2,901,12.92,616,90.47c-13,3.52-187.12,51.6-182.92,84.85,4.6,36.39,215-7.07,309.8,117.09,26,34,52.16,92.3,31.31,127.28C766.71,432.2,746.5,453,677,451.93Z" transform="translate(-10 -10)" fill="url(#myPattern-c)"/>
</svg>