<svg id="Layer_1" data-name="Layer 1" xmlns="http://www.w3.org/2000/svg" viewBox="0 0 1180 1180">
	<pattern id="myPattern-d" width="100%" height="100%" patternContentUnits="objectBoundingBox"><image xlink:href="{{image:/assets/img/30/american-green-travel-ji5XMfO3dXY-unsplash.jpg}}" width="1" height="1" preserveAspectRatio="xMidYMid slice"></image></pattern>
	<path d="M233.05,425.69C404.6,309.57,397,26.15,481.31,10.63,577.32-7,630.75,352.58,797.16,376c115.52,16.23,168.73-146,257.91-113.2,117.52,43.19,183.17,382.9,92.41,490.53-82,97.26-274.07-16-289.64,32.58-17.13,53.55,223,168,209.65,271-11.85,91.56-225.09,183.35-390.33,101.19-158.86-79-186.77-275.73-282.74-264.13-102.75,12.42-117.61,243.62-205.51,247-95.59,3.65-222.5-264.29-164.13-401.34C88,591.1,355.94,626,355.8,588.63c-.14-38-277.08-16.57-313.09-144.07-26.1-92.42,83.65-230.3,104.82-217.82s-42,179.36,1.38,217.82C172.79,465.72,216.44,436.93,233.05,425.69Z" transform="translate(-10 -10)" fill="url(#myPattern-d)"/>
</svg>