<svg id="Layer_1" data-name="Layer 1" xmlns="http://www.w3.org/2000/svg" viewBox="0 0 1180 1180">
	<pattern id="myPattern-e" width="100%" height="100%" patternContentUnits="objectBoundingBox"><image xlink:href="{{image:/assets/img/30/american-green-travel-ji5XMfO3dXY-unsplash.jpg}}" width="1" height="1" preserveAspectRatio="xMidYMid slice"></image></pattern>
	<path d="M207.88,516.73c67.08-146-44.43-286.07,22.81-341.92,33.18-27.56,86.75-12.84,193.87,16.6,172.35,47.36,257.68,114,280.21,89.63,30.73-33.27-113.35-173.5-74.94-237.36C661.08-8.29,805.68,2.8,908.41,57,1131,174.32,1260.58,548.51,1149.52,805.54c-158,365.72-765.13,406.11-775.47,376.78C363.4,1152.1,585.84,1044.56,533.71,984.8s-100,179-376.33-3.32c-80.38-53-162.53-160-145-250.63C31.46,632.27,151.72,639,207.88,516.73Z" transform="translate(-10 -10)" fill="url(#myPattern-e)"/>
</svg>