<svg xmlns="http://www.w3.org/2000/svg" xmlns:xlink="http://www.w3.org/1999/xlink" viewBox="0 0 48 48"><path d="M11.5 2C5.1664891 2 0 7.1664939 0 13.5C0 15.932493 0.76684074 18.189157 2.0644531 20.050781 A 1.50015 1.50015 0 0 0 2 20.5L2 31.5C2 33.967501 4.0324991 36 6.5 36L7.2148438 36C7.8742368 38.298413 10.000264 40 12.5 40C14.999736 40 17.125763 38.298413 17.785156 36L30.214844 36C30.874237 38.298413 33.000264 40 35.5 40C37.999736 40 40.125763 38.298413 40.785156 36L41.5 36C43.967501 36 46 33.967501 46 31.5L46 25.136719C46 24.505308 45.866775 23.885098 45.613281 23.3125 A 1.50015 1.50015 0 0 0 45.611328 23.310547L42.662109 16.673828L42.662109 16.671875C41.941923 15.05033 40.324799 14 38.550781 14L31.949219 14C31.694299 11.766623 29.796595 10 27.5 10L22.451172 10C20.964206 5.3689287 16.613775 2 11.5 2 z M 11.5 5C16.212192 5 20 8.7878114 20 13.5C20 18.212189 16.212192 22 11.5 22C6.7878084 22 3 18.212189 3 13.5C3 8.7878114 6.7878084 5 11.5 5 z M 11.476562 6.9785156 A 1.50015 1.50015 0 0 0 10 8.5L10 13.5 A 1.50015 1.50015 0 0 0 10.439453 14.560547L12.439453 16.560547 A 1.50015 1.50015 0 1 0 14.560547 14.439453L13 12.878906L13 8.5 A 1.50015 1.50015 0 0 0 11.476562 6.9785156 z M 22.974609 13L27.5 13C28.346499 13 29 13.653501 29 14.5L29 15.5L29 33L17.785156 33C17.125763 30.701587 14.999736 29 12.5 29C10.000264 29 7.8742368 30.701587 7.2148438 33L6.5 33C5.6535009 33 5 32.346499 5 31.5L5 22.972656C6.8516945 24.248436 9.090002 25 11.5 25C17.833511 25 23 19.833506 23 13.5C23 13.33138 22.981858 13.16689 22.974609 13 z M 32 17L38.550781 17C39.148248 17 39.677843 17.345067 39.919922 17.890625L41.746094 22L32 22L32 17 z M 32 25L42.986328 25C42.990597 25.045531 43 25.091276 43 25.136719L43 31.5C43 32.346499 42.346499 33 41.5 33L40.785156 33C40.125763 30.701587 37.999736 29 35.5 29C34.174012 29 32.953662 29.479254 32 30.271484L32 25 z M 12.5 32C13.848747 32 14.91448 33.032799 14.986328 34.361328 A 1.50015 1.50015 0 0 0 14.986328 34.638672C14.91448 35.967201 13.848747 37 12.5 37C11.151253 37 10.08552 35.967201 10.013672 34.638672 A 1.50015 1.50015 0 0 0 10.013672 34.361328C10.08552 33.032799 11.151253 32 12.5 32 z M 35.5 32C36.896406 32 38 33.103594 38 34.5C38 35.896406 36.896406 37 35.5 37C34.103594 37 33 35.896406 33 34.5C33 33.103594 34.103594 32 35.5 32 z"/></svg>