<svg style="fill:currentColor;" class="svg-physics" xmlns="http://www.w3.org/2000/svg" xmlns:xlink="http://www.w3.org/1999/xlink" viewBox="0 0 24 24"><path d="M12 2C10.25 2 8.7708594 3.6194531 7.8808594 6.1894531C8.0308594 6.0794531 8.1896094 5.9808594 8.3496094 5.8808594C9.2996094 5.2908594 10.260703 4.779375 11.220703 4.359375C11.490703 4.119375 11.76 4 12 4C12.02 4 12.050312 3.9997656 12.070312 4.0097656C12.570312 4.0497656 13.159922 4.6003125 13.669922 5.5703125C13.673575 5.5772125 13.676038 5.5868061 13.679688 5.59375C12.352895 6.0134858 10.960243 6.6447791 9.5800781 7.484375C9.5804086 7.4832242 9.5797474 7.4816191 9.5800781 7.4804688C9.5371224 7.5019466 9.4990281 7.527587 9.4589844 7.5527344C9.442288 7.5630389 9.4248932 7.569716 9.4082031 7.5800781C9.0508915 7.8033064 8.7108837 8.0333375 8.3789062 8.2675781C8.2629956 8.349654 8.1516104 8.4323786 8.0390625 8.515625C7.8024443 8.6897546 7.5736787 8.8663042 7.3515625 9.0449219C7.2993972 9.0869383 7.2407963 9.1277745 7.1894531 9.1699219C7.1891161 9.1724213 7.1897893 9.175234 7.1894531 9.1777344C3.7912473 11.971197 2.1871234 15.227273 3.40625 17.330078C3.83625 18.070078 4.5775937 18.589844 5.5585938 18.839844C6.0085938 18.949844 6.4878125 19 7.0078125 19C7.4225758 19 7.8648683 18.96127 8.3222656 18.894531C8.6518617 19.612764 9.0413141 20.231645 9.4804688 20.720703C10.210469 21.540703 11.07 22 12 22C13.75 22 15.229141 20.380547 16.119141 17.810547C16.429141 16.920547 16.660547 15.920078 16.810547 14.830078C16.810884 14.827579 16.810211 14.824766 16.810547 14.822266C20.209334 12.028803 21.812877 8.7727274 20.59375 6.6699219C20.16375 5.9299219 19.422406 5.4101562 18.441406 5.1601562C18.211406 5.1001563 17.982422 5.0590625 17.732422 5.0390625C18.022422 5.7390625 18.261172 6.4890625 18.451172 7.2890625C18.641172 7.3990625 18.771328 7.5296875 18.861328 7.6796875C19.337121 8.5015113 18.561282 10.412731 16.498047 12.414062C16.396151 12.513485 16.302147 12.611198 16.193359 12.710938C15.90289 12.976835 15.578805 13.242682 15.242188 13.507812C15.148365 13.581246 15.067995 13.65556 14.970703 13.728516C14.526898 14.063881 14.048316 14.397074 13.529297 14.720703C12.779297 15.190703 12.049609 15.570625 11.349609 15.890625C11.549609 16.830625 11.788516 17.480547 11.978516 17.810547C12.782472 17.45531 13.605404 17.015733 14.419922 16.519531C13.989922 18.029531 13.379062 19.099141 12.789062 19.619141C12.519063 19.869141 12.25 20 12 20C11.97 20 11.940156 20.000469 11.910156 19.980469C11.410156 19.930469 10.840078 19.379687 10.330078 18.429688C10.060078 17.919687 9.7998438 17.290781 9.5898438 16.550781C9.4198438 15.960781 9.2796875 15.300078 9.1796875 14.580078C9.0996875 14.050078 9.0492969 13.480859 9.0292969 12.880859C9.0092969 12.600859 9 12.3 9 12C9 11.381366 9.0302762 10.793273 9.0800781 10.234375C9.5104762 9.9114786 9.9685012 9.5910206 10.46875 9.2792969C11.88797 8.39268 13.224448 7.8227712 14.416016 7.4628906C14.573446 8.0275844 14.711833 8.6683808 14.810547 9.359375C14.900547 9.929375 14.960469 10.539453 14.980469 11.189453C15.780469 10.499453 16.410078 9.8403125 16.830078 9.3203125C16.810078 9.1403125 16.78 8.9707812 16.75 8.8007812C16.66 8.1807813 16.529141 7.5892969 16.369141 7.0292969C16.179141 6.3292969 15.949688 5.689375 15.679688 5.109375C15.349687 4.389375 14.959531 3.7692969 14.519531 3.2792969C13.789531 2.4592969 12.93 2 12 2 z M 7 12.085938C7.0104304 13.879732 7.2309951 15.534628 7.6289062 16.960938C7.0000939 17.021331 6.4597781 17.001794 6.0488281 16.900391C5.5988281 16.780391 5.2886719 16.590312 5.1386719 16.320312C5.0486719 16.160312 4.9980469 15.960469 4.9980469 15.730469C4.9974406 14.863492 5.6620524 13.520177 7 12.085938 z"/></svg>