<svg style="fill:currentColor;" class="svg-shopping-cart" xmlns="http://www.w3.org/2000/svg" xmlns:xlink="http://www.w3.org/1999/xlink" viewBox="0 0 48 48"><path d="M3.5 6 A 1.50015 1.50015 0 1 0 3.5 9L6.2558594 9C6.9837923 9 7.5905865 9.5029243 7.7285156 10.21875L8.0234375 11.763672C8.0244746 11.769537 8.0242827 11.77539 8.0253906 11.78125L11.251953 28.716797C11.835953 31.778797 14.521672 34 17.638672 34L36.361328 34C39.478328 34 42.165047 31.778797 42.748047 28.716797L45.974609 11.779297C46.057609 11.340297 45.94125 10.887969 45.65625 10.542969C45.37125 10.198969 44.947 10 44.5 10L10.740234 10L10.675781 9.6582031C10.272657 7.5455321 8.4069705 6 6.2558594 6L3.5 6 z M 20 36 A 3 3 0 0 0 20 42 A 3 3 0 0 0 20 36 z M 34 36 A 3 3 0 0 0 34 42 A 3 3 0 0 0 34 36 z"></path></svg>